<?xml version="1.0" encoding="UTF-8" standalone="no"?>
<!-- Created with Inkscape (http://www.inkscape.org/) -->
<svg
   xmlns:svg="http://www.w3.org/2000/svg"
   xmlns="http://www.w3.org/2000/svg"
   version="1.0"
   width="1039.6991"
   height="585.83124"
   id="svg2"
   xml:space="preserve"><defs
     id="defs5" /><path
     d="M 5.4579163,3.0753301 L 5.4579163,582.75592 L 1034.2412,295.88722 L 5.4579163,3.0753301"
     id="path139"
     style="fill:#ffffff;fill-opacity:1;fill-rule:nonzero;stroke:none" /><path
     d="M 22.172201,25.929092 L 22.172201,558.22866 L 966.87104,294.80866 L 22.172201,25.929092"
     id="path143"
     style="fill:#008657;fill-opacity:1;fill-rule:nonzero;stroke:none" /><path
     d="M 428.57144,206.63676 L 411.4407,206.85321 L 415.83162,275.96367 C 389.97349,301.17244 386.71555,370.3633 413.9763,372.13079 C 443.62423,369.77453 435.02175,302.56887 434.4466,296.8978 C 431.0056,283.20187 445.88523,289.11661 447.06274,298.78403 L 448.23777,330.077 L 465.86326,330.3553 L 466.29616,304.07168 C 466.64003,292.76418 479.95251,292.98308 479.93272,304.62827 L 479.59258,325.90254 L 498.20757,326.21176 L 498.54771,305.24671 C 496.13828,268.27275 468.42359,274.13804 460.94667,284.00336 C 454.53471,268.9234 440.92165,266.71802 432.59129,267.58383 L 428.57144,206.63676 z M 80.916459,224.26224 C 54.975495,224.68085 28.228085,247.99101 49.592569,289.97129 C 42.526295,326.12518 81.245466,338.69429 110.66333,319.53263 C 115.73205,325.10352 128.79965,329.47586 141.2451,321.35702 L 141.49247,305.40132 C 134.41259,311.2839 122.47179,309.92704 126.03152,305.49409 C 162.72716,226.71002 89.069945,223.53123 100.95385,303.08218 C 88.686515,310.54673 74.855768,311.6686 69.846417,302.43282 C 112.72273,305.44956 93.126901,250.54091 63.167285,272.1912 C 57.642159,253.47231 75.532338,238.12145 97.830741,248.6287 L 98.13996,227.66365 C 92.843733,225.27052 86.902835,224.16564 80.916459,224.26224 z M 201.20267,230.47754 C 118.11006,230.53949 141.2347,370.4647 225.47637,318.20299 C 247.54966,332.19699 268.30815,314.38228 268.51966,300.91765 C 275.17653,300.85082 278.30211,303.90841 278.22914,308.40075 L 277.95084,324.35645 L 292.60782,324.60382 L 292.8552,307.96784 C 292.78221,302.13842 296.99007,299.70922 302.3173,299.46432 L 302.56468,282.82833 C 297.26466,281.4059 290.40495,285.28848 289.85577,288.61073 C 285.30407,281.88089 278.17595,279.27355 270.18944,279.14862 C 251.51137,240.24888 215.82378,287.62246 247.43092,298.10375 C 255.56956,299.22806 250.59856,307.7786 243.28738,307.16387 C 235.63854,306.70743 235.30582,296.41418 235.74244,290.09498 C 235.12153,276.94079 211.39453,283.37008 215.08661,302.06176 C 161.20828,342.46927 143.65577,232.05456 213.91157,250.14388 L 214.22079,231.52889 C 209.61497,230.81582 205.28919,230.4745 201.20267,230.47754 z M 686.18183,245.01084 L 648.0242,268.85163 L 659.12517,283.01386 L 695.24195,260.6264 L 686.18183,245.01084 z M 315.95386,247.26814 L 313.0472,283.66322 L 307.57402,283.57046 L 307.29573,299.8663 L 311.13004,300.11368 L 310.69714,326.70651 L 326.83837,326.98481 L 327.14759,306.85465 C 327.01525,304.51817 331.37276,303.07476 333.91949,310.10145 C 341.8528,334.52354 369.30528,335.47968 380.11681,325.00581 L 380.39511,306.3599 C 371.80748,312.37483 361.11097,316.36623 354.11149,306.60728 C 408.03558,284.17035 359.24453,235.48442 333.48658,285.98236 L 328.47723,285.8896 L 332.0951,247.36091 L 315.95386,247.26814 z M 588.22124,253.29791 C 573.34504,254.15745 559.61036,280.15668 570.65759,311.21464 C 567.14487,312.65685 559.95862,314.86342 559.95862,314.86342 L 560.32968,290.74434 L 542.88972,290.46604 C 538.02015,303.36171 525.07994,310.00745 522.79049,307.47309 C 520.11016,298.28185 532.41462,288.46106 556.06246,287.34293 L 556.37167,268.88255 C 525.74908,269.89555 505.69438,285.71025 502.41295,303.79338 C 501.3282,330.23288 525.44235,328.95763 540.41597,318.54313 L 540.32321,324.38737 C 511.20342,334.90826 511.35309,367.99344 535.43754,370.36824 C 557.70131,372.38683 561.04336,350.48051 559.58755,337.31273 L 580.1197,323.18142 C 586.89531,336.43453 616.53952,335.0678 630.64609,326.64467 C 636.56208,331.39552 651.56167,329.29406 656.28035,325.37687 L 698.2723,300.42289 C 710.87115,292.80621 714.17853,305.00552 710.11539,309.26656 C 703.86298,315.493 692.00257,318.97233 689.33587,319.59448 L 689.02665,338.20946 C 736.47447,336.63492 746.19383,279.40713 711.75425,279.51969 C 693.30748,278.06389 662.94464,304.86575 647.7459,308.6172 C 665.53838,267.13733 594.37717,264.175 610.70146,315.51278 C 603.32351,318.72864 596.87566,316.11762 594.28193,312.08045 C 610.41328,291.37762 617.27051,258.22068 591.22066,253.48344 C 590.22575,253.31144 589.21298,253.24061 588.22124,253.29791 z M 118.9504,268.88255 C 119.0651,268.86076 119.17807,268.86686 119.29054,268.88255 C 121.09638,269.13364 121.88551,274.18133 121.05309,280.16905 C 120.21944,286.15058 118.09077,290.80369 116.29112,290.55881 C 114.49146,290.30772 113.69492,285.25385 114.52857,279.27231 C 115.30432,273.66462 117.22996,269.20945 118.9504,268.88255 z M 588.00478,273.6136 C 588.11566,273.59516 588.23693,273.59667 588.34492,273.6136 C 590.08521,273.88448 590.74693,278.69343 589.8601,284.3435 C 588.97944,289.98737 586.86191,294.356 585.12905,294.0839 C 583.39495,293.81303 582.70229,289.00405 583.58295,283.354 C 584.4132,278.05709 586.34175,273.89024 588.00478,273.6136 z M 252.56396,278.8394 C 254.2325,278.86538 255.55843,280.23955 255.53246,281.90067 C 255.50648,283.56798 254.1385,284.89642 252.47119,284.86918 C 250.80388,284.8432 249.46929,283.47522 249.50269,281.80791 C 249.52866,280.1406 250.89788,278.81219 252.56396,278.8394 z M 358.0695,280.3855 C 358.55464,280.33987 358.99499,280.44673 359.33729,280.69472 C 360.70775,281.68051 360.12766,284.78383 358.0695,287.62123 C 356.01257,290.46728 353.24815,291.98495 351.88511,290.99171 C 350.51466,289.99974 351.05764,286.87289 353.12199,284.03428 C 354.66004,281.90531 356.61406,280.52239 358.0695,280.3855 z M 74.484702,281.74606 C 76.760555,281.77946 78.59979,283.64465 78.566394,285.92052 C 78.526814,288.19761 76.630683,290.01088 74.361015,289.97129 C 72.085163,289.93789 70.276847,288.07394 70.310245,285.79683 C 70.349825,283.52098 72.208848,281.70647 74.484702,281.74606 z M 630.05857,293.27993 C 630.20517,293.2595 630.37228,293.27785 630.5224,293.27993 C 632.92442,293.31951 634.81189,296.29546 634.7587,299.92814 C 634.69933,303.56703 632.71416,306.48605 630.30595,306.45267 C 627.90394,306.4069 625.98553,303.43715 626.03873,299.80446 C 626.09439,296.39299 627.85972,293.58643 630.05857,293.27993 z M 416.97573,307.3494 C 418.78156,307.44217 419.81682,315.8084 419.29487,326.05715 C 418.77785,336.29973 416.90151,344.54723 415.08949,344.45569 C 413.28241,344.36292 412.24097,335.96574 412.77035,325.71701 C 413.28612,315.46702 415.16246,307.25789 416.97573,307.3494 z M 539.1791,343.18789 C 541.24963,343.37342 542.74871,345.51939 542.54958,347.98078 C 542.33189,350.44217 540.47781,352.27275 538.40605,352.0934 C 536.33552,351.9091 534.86115,349.79283 535.06648,347.33142 C 535.27799,344.87004 537.10732,343.01594 539.1791,343.18789 z"
     id="path145"
     style="fill:#ffffff;fill-opacity:1;fill-rule:nonzero;stroke:none" /></svg>